<svg width="76" height="75" viewBox="0 0 76 75" fill="none" xmlns="http://www.w3.org/2000/svg">
<g id="Plus">
<path id="Vector" d="M38 6.25C20.7406 6.25 6.75 20.2406 6.75 37.5C6.75 54.7594 20.7406 68.75 38 68.75C55.2594 68.75 69.25 54.7594 69.25 37.5C69.25 20.2406 55.2594 6.25 38 6.25ZM50.5 40.625H41.125V50C41.125 51.725 39.725 53.125 38 53.125C36.275 53.125 34.875 51.725 34.875 50V40.625H25.5C23.775 40.625 22.375 39.225 22.375 37.5C22.375 35.775 23.775 34.375 25.5 34.375H34.875V25C34.875 23.275 36.275 21.875 38 21.875C39.725 21.875 41.125 23.275 41.125 25V34.375H50.5C52.225 34.375 53.625 35.775 53.625 37.5C53.625 39.225 52.225 40.625 50.5 40.625Z" fill="white"/>
</g>
</svg>
