<svg xmlns="http://www.w3.org/2000/svg" width="30" height="30" viewBox="0 0 30 30" fill="none">
  <path fill-rule="evenodd" clip-rule="evenodd" d="M15 17.6525L21.6287 24.2813C21.9805 24.633 22.4576 24.8306 22.955 24.8306C23.4524 24.8306 23.9295 24.633 24.2812 24.2813C24.633 23.9295 24.8306 23.4525 24.8306 22.955C24.8306 22.4576 24.633 21.9805 24.2812 21.6288L17.65 15L24.28 8.37127C24.4541 8.1971 24.5921 7.99035 24.6863 7.76282C24.7805 7.5353 24.829 7.29145 24.8289 7.0452C24.8288 6.79895 24.7803 6.55512 24.686 6.32764C24.5917 6.10016 24.4535 5.89347 24.2794 5.71939C24.1052 5.54531 23.8985 5.40723 23.6709 5.31305C23.4434 5.21887 23.1996 5.17042 22.9533 5.17048C22.7071 5.17054 22.4632 5.2191 22.2357 5.31339C22.0083 5.40768 21.8016 5.54585 21.6275 5.72002L15 12.3488L8.37124 5.72002C8.19836 5.54085 7.99154 5.39792 7.76283 5.29954C7.53411 5.20117 7.2881 5.14933 7.03914 5.14705C6.79018 5.14477 6.54326 5.1921 6.31279 5.28626C6.08232 5.38043 5.8729 5.51956 5.69677 5.69552C5.52064 5.87149 5.38132 6.08077 5.28693 6.31115C5.19255 6.54154 5.14499 6.78841 5.14704 7.03738C5.14908 7.28634 5.20069 7.5324 5.29885 7.7612C5.397 7.99 5.53975 8.19697 5.71874 8.37002L12.35 15L5.71999 21.63C5.541 21.8031 5.39825 22.01 5.3001 22.2388C5.20194 22.4676 5.15033 22.7137 5.14829 22.9627C5.14624 23.2116 5.1938 23.4585 5.28818 23.6889C5.38257 23.9193 5.52189 24.1285 5.69802 24.3045C5.87415 24.4805 6.08357 24.6196 6.31404 24.7138C6.54451 24.8079 6.79143 24.8553 7.04039 24.853C7.28935 24.8507 7.53536 24.7989 7.76407 24.7005C7.99279 24.6021 8.19961 24.4592 8.37249 24.28L15 17.6525Z" fill="#F8F8F8"/>
</svg>