<svg xmlns="http://www.w3.org/2000/svg" width="38" height="34" viewBox="0 0 38 34" fill="none">
  <path d="M38 10.9818C38 23.3805 20.3928 33.4164 19.6429 33.8309C19.4453 33.9419 19.2244 34 19 34C18.7756 34 18.5547 33.9419 18.3571 33.8309C17.6072 33.4164 0 23.3805 0 10.9818C0.00314304 8.07022 1.11228 5.27887 3.08408 3.22011C5.05588 1.16134 7.72931 0.00328166 10.5179 0C14.021 0 17.0881 1.57287 19 4.23152C20.9119 1.57287 23.979 0 27.4821 0C30.2707 0.00328166 32.9441 1.16134 34.9159 3.22011C36.8877 5.27887 37.9969 8.07022 38 10.9818Z" fill="white"/>
</svg>