<svg xmlns="http://www.w3.org/2000/svg" width="22" height="22" viewBox="0 0 22 22" fill="none">
  <g clip-path="url(#clip0_25_1680)">
    <path d="M20.1666 11.5833C20.0862 11.5838 20.0064 11.5691 19.932 11.54C19.8575 11.511 19.7898 11.4682 19.7327 11.4142L10.9999 3.07251L2.26716 11.4142C2.15025 11.5097 1.99987 11.5597 1.84607 11.554C1.69227 11.5483 1.54637 11.4875 1.43754 11.3836C1.3287 11.2797 1.26494 11.1404 1.259 10.9936C1.25306 10.8468 1.30537 10.7033 1.40549 10.5917L10.5722 1.84167C10.6867 1.73303 10.8415 1.67204 11.003 1.67204C11.1644 1.67204 11.3193 1.73303 11.4338 1.84167L20.6005 10.5917C20.6846 10.6736 20.7415 10.7773 20.7642 10.8899C20.7869 11.0025 20.7743 11.119 20.728 11.2248C20.6817 11.3306 20.6037 11.4211 20.5039 11.4848C20.4041 11.5486 20.2867 11.5829 20.1666 11.5833Z" fill="#111111"/>
    <path d="M11.0001 5.04416L3.66675 12.0675V19.1667C3.66675 19.4761 3.79552 19.7728 4.02473 19.9916C4.25394 20.2104 4.56482 20.3333 4.88897 20.3333H9.16675V14.5H12.8334V20.3333H17.1112C17.4353 20.3333 17.7462 20.2104 17.9754 19.9916C18.2046 19.7728 18.3334 19.4761 18.3334 19.1667V12.0267L11.0001 5.04416Z" fill="#111111"/>
  </g>
  <defs>
    <clipPath id="clip0_25_1680">
      <rect width="22" height="21" fill="white" transform="translate(0 0.5)"/>
    </clipPath>
  </defs>
</svg>