<svg xmlns="http://www.w3.org/2000/svg" width="22" height="22" viewBox="0 0 20 22" fill="none">
  <path d="M19.4048 8.58594C19.4048 14.3281 11.2962 18.976 10.9509 19.168C10.8599 19.2194 10.7581 19.2463 10.6548 19.2463C10.5514 19.2463 10.4497 19.2194 10.3587 19.168C10.0134 18.976 1.90479 14.3281 1.90479 8.58594C1.90623 7.23753 2.41702 5.94478 3.32509 4.99132C4.23315 4.03785 5.46434 3.50152 6.74854 3.5C8.36182 3.5 9.77432 4.22844 10.6548 5.45973C11.5353 4.22844 12.9478 3.5 14.561 3.5C15.8452 3.50152 17.0764 4.03785 17.9845 4.99132C18.8926 5.94478 19.4033 7.23753 19.4048 8.58594Z" fill="#111111"/>
</svg>