<svg xmlns="http://www.w3.org/2000/svg" width="29" height="25" viewBox="0 0 24 25" fill="none">
  <path d="M19.4677 12.6114C19.2049 12.278 18.885 11.9891 18.5879 11.7002C17.8223 11.0335 16.9539 10.5558 16.2226 9.85574C14.5201 8.23347 14.143 5.55561 15.2285 3.5C14.143 3.75556 13.1946 4.33336 12.3833 4.96671C9.42385 7.27789 8.25834 11.3558 9.65237 14.8559C9.69808 14.967 9.74379 15.0781 9.74379 15.2226C9.74379 15.467 9.57239 15.6892 9.34386 15.7781C9.08105 15.8892 8.80682 15.8226 8.58971 15.6448C8.52447 15.5923 8.47017 15.5282 8.42974 15.4559C7.13855 13.867 6.93287 11.5891 7.80129 9.76685C5.89306 11.278 4.85325 13.8336 5.0018 16.2448C5.07036 16.8004 5.13892 17.356 5.33317 17.9115C5.49314 18.5782 5.80165 19.2449 6.14445 19.8338C7.37851 21.7561 9.51526 23.1339 11.812 23.4117C14.2572 23.7117 16.8739 23.2783 18.7479 21.6339C20.8389 19.7894 21.5702 16.8337 20.4961 14.3003L20.3476 14.0114C20.1076 13.5003 19.4677 12.6114 19.4677 12.6114ZM15.857 19.6116C15.537 19.8782 15.0114 20.1671 14.6 20.2783C13.3203 20.7227 12.0405 20.1005 11.2864 19.3671C12.6461 19.056 13.4574 18.0782 13.6973 17.0893C13.8916 16.2004 13.526 15.467 13.3774 14.6114C13.2403 13.7892 13.2631 13.0892 13.5717 12.3225C13.7888 12.7447 14.0173 13.1669 14.2915 13.5003C15.1714 14.6114 16.554 15.1003 16.8511 16.6115C16.8968 16.767 16.9196 16.9226 16.9196 17.0893C16.9539 18.0004 16.5425 19.0004 15.857 19.6116Z" fill="#111111"/>
</svg>